# xmcd CD database file
#
# Track frame offsets:
#	150
#	22227
#	36942
#	52640
#	71760
#	89645
#	101542
#	123132
#	139152
#	158180
#	176052
#	197232
#	216317
#	242877
#	259562
#	281310
#
# Disc length: 3892 seconds
#
# Revision: 2
# Processed by: cddbd v1.5.2PL0 Copyright (c) Steve Scherf et al.
# Submitted via: CDex 1.70beta2
#
DISCID=ea0f3210
DTITLE=アンジー - RARE-TRACKS
DYEAR=1992
DGENRE=Rock
TTITLE0=銀の腕時計
TTITLE1=祈り
TTITLE2=徘徊（ライオンのうた）
TTITLE3=ラブ・ジェネレーション
TTITLE4=天花粉
TTITLE5=毒々新聞
TTITLE6=青のバラード
TTITLE7=ペダルをこいで
TTITLE8=ロックンローラー
TTITLE9=天井裏から愛を込めて
TTITLE10=奈々
TTITLE11=サラバ列車で行こう
TTITLE12=笑い者
TTITLE13=でくのぼう
TTITLE14=マグマの人よ
TTITLE15=君が忘れた大きなもの
EXTD=YEAR: 1992
EXTT0=
EXTT1=
EXTT2=
EXTT3=
EXTT4=
EXTT5=
EXTT6=
EXTT7=
EXTT8=
EXTT9=
EXTT10=
EXTT11=
EXTT12=
EXTT13=
EXTT14=
EXTT15=
PLAYORDER=
